<svg width="16" height="16" viewBox="0 0 16 16" fill="none" xmlns="http://www.w3.org/2000/svg">
<rect x="0.5" y="0.5" width="15" height="15" rx="7.5" fill="#83888F"/>
<rect x="0.5" y="0.5" width="15" height="15" rx="7.5" stroke="white"/>
<path fill-rule="evenodd" clip-rule="evenodd" d="M11.2327 5.89889C11.5451 5.58647 11.5451 5.07994 11.2327 4.76752C10.9203 4.4551 10.4138 4.4551 10.1013 4.76752L8.00036 6.8685L5.89938 4.76752C5.58696 4.4551 5.08043 4.4551 4.76801 4.76752C4.45559 5.07994 4.45559 5.58647 4.76801 5.89889L6.86899 7.99987L4.76801 10.1009C4.45559 10.4133 4.45559 10.9198 4.76801 11.2322C5.08043 11.5446 5.58696 11.5446 5.89938 11.2322L8.00036 9.13124L10.1013 11.2322C10.4138 11.5446 10.9203 11.5446 11.2327 11.2322C11.5451 10.9198 11.5451 10.4133 11.2327 10.1009L9.13173 7.99987L11.2327 5.89889Z" fill="white"/>
</svg>
