<svg width="25" height="24" viewBox="0 0 25 24" fill="none" xmlns="http://www.w3.org/2000/svg">
<path fill-rule="evenodd" clip-rule="evenodd" d="M15.9276 5.89169L15.9351 5.87452C16.0885 5.51937 16.3669 5.03315 16.884 4.64191C17.4272 4.23092 18.0691 4.04883 18.724 4.04883H20.917C21.5008 4.04883 22.5314 4.19253 23.1878 5.13139C23.783 5.98263 23.6439 6.89072 23.5158 7.35605C23.3681 7.96622 23.0324 8.63262 22.758 9.13732C22.4368 9.72815 22.049 10.3624 21.6857 10.9313C21.3683 11.4283 21.0591 11.8918 20.8112 12.2567C21.0623 12.5037 21.3754 12.8177 21.6481 13.1372C22.1268 13.6759 22.5815 14.2116 22.9515 14.7125C23.2985 15.1822 23.6901 15.7763 23.8927 16.4087L23.9008 16.434L23.9082 16.4595C24.0994 17.1159 24.1744 18.153 23.4258 19.0217C22.7392 19.8185 21.7933 19.9498 21.229 19.9498H19.037C18.5313 19.9498 18.0371 19.8415 17.5646 19.5941C17.1355 19.3693 16.8116 19.0735 16.5817 18.843C16.3987 18.6596 16.1979 18.4361 16.0125 18.2298C15.9728 18.1856 15.9339 18.1423 15.896 18.1003C15.8145 18.01 15.7289 17.9158 15.6378 17.8172C15.5254 18.3189 15.2477 18.9308 14.5676 19.3874C13.7994 19.903 12.8449 19.9508 12.148 19.9508C9.03125 19.9508 5.92332 18.0968 3.82657 15.0925C2.38344 13.0687 1.44627 11.2668 0.863447 9.85946C0.572067 9.1559 0.365654 8.54227 0.228959 8.04077C0.107877 7.59655 0 7.09378 0 6.66883C0 6.3011 0.0619764 5.51573 0.697754 4.85313C1.34033 4.18344 2.16958 4.04983 2.752 4.04983H4.944C5.52942 4.04983 6.27962 4.18674 6.92059 4.77713C7.11648 4.95755 7.27219 5.15523 7.39684 5.35054C7.82704 4.57944 8.66054 4.04883 9.642 4.04883H13.088C13.6711 4.04883 14.561 4.21972 15.1779 5.04599C15.5283 5.5152 15.6506 6.02661 15.6926 6.41966C15.7143 6.37325 15.7345 6.32935 15.7534 6.28818C15.8115 6.16118 15.8554 6.06131 15.8837 5.99558C15.8979 5.96274 15.9082 5.93851 15.9144 5.92376L15.9205 5.909L15.9206 5.9089L15.9207 5.90854L15.9209 5.90815L15.9211 5.90754L15.9214 5.90704L15.9276 5.89169ZM17.771 6.66783C17.771 6.66783 16.9479 8.67498 15.714 10.3584C15.6507 10.4448 15.5863 10.5303 15.5209 10.6146C15.3774 10.7997 15.2289 10.9793 15.076 11.1498C15.0597 11.1662 15.0438 11.1822 15.0281 11.1978C14.5511 11.673 14.3241 11.8248 14.055 11.8248C13.916 11.8248 13.714 11.6628 13.714 11.1978V9.9292V9.86868V9.79579V9.66879V6.85483C13.714 6.29683 13.553 6.04883 13.088 6.04883H11.0795H10.9966H9.642C9.294 6.04883 9.084 6.30683 9.084 6.55283C9.084 6.75426 9.19898 6.89661 9.34571 7.07825C9.43878 7.19347 9.54463 7.3245 9.642 7.49645C9.72382 7.64093 9.79965 7.8143 9.85691 8.03146C9.85843 8.03722 9.85994 8.04301 9.86143 8.04883C9.90786 8.22995 9.94141 8.44116 9.955 8.69083V10.5229V10.8056V11.9188C9.955 12.6258 9.828 12.7548 9.548 12.7548C9.29831 12.7548 8.92835 12.4466 8.50643 11.9188C8.40406 11.7908 8.29864 11.6498 8.19113 11.4971C8.11339 11.3868 8.03455 11.2703 7.955 11.1482C7.24872 10.0641 6.48566 8.53709 5.924 6.90183C5.715 6.29483 5.504 6.04983 4.944 6.04983H2.752C2.125 6.04983 2 6.34483 2 6.66883C2 7.25083 2.743 10.1308 5.461 13.9398C7.273 16.5408 9.824 17.9508 12.148 17.9508C13.541 17.9508 13.713 17.6378 13.713 17.0978V15.1318C13.713 14.5058 13.846 14.3798 14.287 14.3798C14.539 14.3798 14.9326 14.4791 15.7074 15.1129C15.7093 15.1144 15.7112 15.116 15.713 15.1175C15.9329 15.2977 16.1835 15.5209 16.47 15.7968C16.9122 16.239 17.2446 16.6087 17.5154 16.9098C18.1546 17.6207 18.4505 17.9498 19.037 17.9498H21.229C21.855 17.9498 22.168 17.6368 21.988 17.0188C21.791 16.4038 21.081 15.5088 20.139 14.4498C19.8794 14.1435 19.5547 13.8254 19.2673 13.5439C19.2468 13.5238 19.2266 13.504 19.2066 13.4843C18.9529 13.2356 18.7354 13.0193 18.629 12.8708C18.304 12.4518 18.398 12.2668 18.629 11.8948C18.629 11.8948 18.629 11.8948 18.629 11.8948C18.6336 11.8894 19.1075 11.2222 19.6756 10.356C19.7074 10.3076 19.7394 10.2586 19.7717 10.2091C20.5343 9.03767 21.4248 7.56427 21.579 6.85483C21.719 6.38983 21.579 6.04883 20.917 6.04883H18.724C18.166 6.04883 17.911 6.34383 17.771 6.66783Z" fill="white"/>
</svg>
