<svg width="40" height="40" viewBox="0 0 40 40" fill="none" xmlns="http://www.w3.org/2000/svg">
<g clip-path="url(#clip0_763_6856)">
<path d="M20.8659 8.19824L7.6871 23.7492C7.28066 24.2288 7.35146 24.9495 7.84343 25.3408L25.3207 39.2432L20.8659 8.19824Z" fill="#3FADB1"/>
<path d="M7.50195 20.5882V6.23747C7.50195 5.27425 8.64195 4.76523 9.35913 5.40822L15.5764 10.9824L7.50195 20.5882Z" fill="#3FADB1"/>
<path d="M5.51491 13.3488V6.80566L0.973604 9.98389C0.221829 10.51 0.393153 11.6686 1.26503 11.9546L5.51491 13.3488Z" fill="#3FADB1"/>
<path d="M25.3213 24.0689L22.8154 6.94547L37.3789 0.573931C38.3783 0.136707 39.3453 1.24802 38.7742 2.17738L25.3213 24.0689Z" fill="#3FADB1"/>
<path d="M27.5489 39.2428L26.1567 27.8272L37.8432 27.8272C38.8768 27.8272 39.3529 29.1129 38.5685 29.786L27.5489 39.2428Z" fill="#3FADB1"/>
</g>
<defs>
<clipPath id="clip0_763_6856">
<rect width="40" height="40" fill="white"/>
</clipPath>
</defs>
</svg>
