<svg width="38" height="38" viewBox="0 0 38 38"  xmlns="http://www.w3.org/2000/svg">
<rect width="38" height="38" rx="19" fill="#F9F8FB"/>
<path fill-rule="evenodd" clip-rule="evenodd" d="M24.7071 14.7071C25.0976 14.3166 25.0976 13.6834 24.7071 13.2929C24.3166 12.9024 23.6834 12.9024 23.2929 13.2929L19 17.5858L14.7071 13.2929C14.3166 12.9024 13.6834 12.9024 13.2929 13.2929C12.9024 13.6834 12.9024 14.3166 13.2929 14.7071L17.5858 19L13.2929 23.2929C12.9024 23.6834 12.9024 24.3166 13.2929 24.7071C13.6834 25.0976 14.3166 25.0976 14.7071 24.7071L19 20.4142L23.2929 24.7071C23.6834 25.0976 24.3166 25.0976 24.7071 24.7071C25.0976 24.3166 25.0976 23.6834 24.7071 23.2929L20.4142 19L24.7071 14.7071Z" fill="#83888F"/>
</svg>
