<svg width="25" height="24" viewBox="0 0 25 24" xmlns="http://www.w3.org/2000/svg">
<path clip-rule="evenodd" d="M0.5 5C0.5 3.34315 1.84315 2 3.5 2H21.5C23.1569 2 24.5 3.34315 24.5 5V7C24.5 8.30622 23.6652 9.41746 22.5 9.82929V18C22.5 20.2091 20.7091 22 18.5 22H6.5C4.29086 22 2.5 20.2091 2.5 18V9.82929C1.33481 9.41746 0.5 8.30622 0.5 7V5ZM4.5 10V18C4.5 19.1046 5.39543 20 6.5 20H18.5C19.6046 20 20.5 19.1046 20.5 18V10H4.5ZM3.5 4C2.94772 4 2.5 4.44772 2.5 5V7C2.5 7.55228 2.94772 8 3.5 8H21.5C22.0523 8 22.5 7.55228 22.5 7V5C22.5 4.44772 22.0523 4 21.5 4H3.5ZM9.5 13C9.5 12.4477 9.94771 12 10.5 12H14.5C15.0523 12 15.5 12.4477 15.5 13C15.5 13.5523 15.0523 14 14.5 14H10.5C9.94771 14 9.5 13.5523 9.5 13Z"/>
</svg>
