<svg width="25" height="24" viewBox="0 0 25 24" xmlns="http://www.w3.org/2000/svg">
<path fill-rule="evenodd" clip-rule="evenodd" d="M17.0307 2.38911L17.9961 2.50933C20.2243 2.78684 21.8969 4.68063 21.8969 6.92607V19.3759C21.8969 21.5561 20.2729 23.3949 18.1094 23.6643C14.516 24.1119 10.8809 24.1119 7.28747 23.6643C5.12398 23.3949 3.5 21.5561 3.5 19.3759V6.92607C3.5 4.68063 5.17257 2.78684 7.40079 2.50933L8.36616 2.38911C8.74855 1.0113 10.0119 0 11.5115 0H13.8853C15.3849 0 16.6483 1.0113 17.0307 2.38911ZM8.24758 4.19797L7.62082 4.27603C6.28388 4.44253 5.28034 5.57881 5.28034 6.92607V19.3759C5.28034 20.6579 6.2353 21.7392 7.5075 21.8977C10.9548 22.327 14.4421 22.327 17.8894 21.8977C19.1616 21.7392 20.1165 20.658 20.1165 19.3759V6.92607C20.1165 5.57881 19.113 4.44253 17.7761 4.27603L17.1493 4.19797V5.63775C17.1493 6.12938 16.7508 6.52793 16.2591 6.52793H9.13776C8.64613 6.52793 8.24758 6.12938 8.24758 5.63775V4.19797ZM10.0279 3.26396C10.0279 2.44458 10.6922 1.78034 11.5115 1.78034H13.8853C14.7047 1.78034 15.369 2.44458 15.369 3.26396V4.74758H10.0279V3.26396Z"/>
<path d="M17.1493 11.2755C17.1493 10.7839 16.7508 10.3853 16.2591 10.3853H9.13776C8.64613 10.3853 8.24758 10.7839 8.24758 11.2755C8.24758 11.7671 8.64613 12.1657 9.13776 12.1657H16.2591C16.7508 12.1657 17.1493 11.7671 17.1493 11.2755Z" />
<path d="M15.9624 14.8362C15.9624 14.3446 15.5639 13.946 15.0722 13.946H9.13776C8.64613 13.946 8.24758 14.3446 8.24758 14.8362C8.24758 15.3278 8.64613 15.7264 9.13776 15.7264H15.0722C15.5639 15.7264 15.9624 15.3278 15.9624 14.8362Z"/>
</svg>
