<svg width="17" height="16" viewBox="0 0 17 16" xmlns="http://www.w3.org/2000/svg">
<path d="M9.16764 13.9997C9.16764 14.3683 8.86898 14.6663 8.50098 14.6663H5.83431C3.99631 14.6663 2.50098 13.171 2.50098 11.333V4.66634C2.50098 2.82834 3.99631 1.33301 5.83431 1.33301H8.50098C8.86898 1.33301 9.16764 1.63101 9.16764 1.99967C9.16764 2.36834 8.86898 2.66634 8.50098 2.66634H5.83431C4.73164 2.66634 3.83431 3.56367 3.83431 4.66634V11.333C3.83431 12.4357 4.73164 13.333 5.83431 13.333H8.50098C8.86898 13.333 9.16764 13.631 9.16764 13.9997ZM14.449 8.25431C14.5163 8.09165 14.5163 7.9077 14.449 7.74504C14.415 7.66304 14.3663 7.58967 14.3043 7.52767L11.6383 4.86165C11.3776 4.60099 10.9563 4.60099 10.6956 4.86165C10.435 5.12232 10.435 5.54369 10.6956 5.80436L12.2243 7.33301H7.16697C6.79897 7.33301 6.5003 7.63101 6.5003 7.99967C6.5003 8.36834 6.79897 8.66634 7.16697 8.66634H12.2243L10.6956 10.195C10.435 10.4557 10.435 10.877 10.6956 11.1377C10.8256 11.2677 10.9963 11.333 11.167 11.333C11.3376 11.333 11.5083 11.2677 11.6383 11.1377L14.3043 8.47168C14.3663 8.40968 14.4156 8.33631 14.449 8.25431Z"/>
</svg>
