<svg width="16" height="16" viewBox="0 0 16 16" fill="none" xmlns="http://www.w3.org/2000/svg">
<path d="M7.99984 8.66634C10.0218 8.66634 11.6665 7.02101 11.6665 4.99967C11.6665 2.97834 10.0218 1.33301 7.99984 1.33301C5.97784 1.33301 4.33317 2.97834 4.33317 4.99967C4.33317 7.02101 5.97784 8.66634 7.99984 8.66634ZM7.99984 2.66634C9.2865 2.66634 10.3332 3.71301 10.3332 4.99967C10.3332 6.28634 9.2865 7.33301 7.99984 7.33301C6.71317 7.33301 5.6665 6.28634 5.6665 4.99967C5.6665 3.71301 6.71317 2.66634 7.99984 2.66634ZM13.3332 11.9777V12.6517C13.3332 13.3157 13.0905 13.9523 12.6498 14.4443C12.5178 14.5917 12.3358 14.6663 12.1525 14.6663C11.9945 14.6663 11.8352 14.6103 11.7078 14.4963C11.4332 14.251 11.4105 13.829 11.6558 13.555C11.8772 13.3077 11.9992 12.9864 11.9992 12.6517V11.9777C11.9992 11.045 11.3812 10.2384 10.4972 10.0164C10.3692 9.98436 10.2325 10.0003 10.1232 10.063C8.8025 10.7977 7.19049 10.7936 5.88249 10.067C5.76715 10.001 5.63117 9.98436 5.50317 10.0164C4.61717 10.2384 3.99984 11.045 3.99984 11.9777V12.6517C3.99984 12.987 4.12185 13.3077 4.34318 13.555C4.58851 13.829 4.56518 14.251 4.29118 14.4963C4.01651 14.7423 3.59519 14.7183 3.34985 14.4443C2.90919 13.9523 2.6665 13.3157 2.6665 12.6517V11.9777C2.6665 10.433 3.69919 9.09432 5.17786 8.72298C5.63586 8.60632 6.13186 8.6737 6.53719 8.90503C7.43652 9.4037 8.55716 9.40771 9.46916 8.90104C9.86849 8.67237 10.3645 8.60566 10.8232 8.72233C12.3005 9.09433 13.3332 10.4324 13.3332 11.9777Z" fill="#111111"/>
</svg>
