<svg width="40" height="40" viewBox="0 0 40 40" fill="none" xmlns="http://www.w3.org/2000/svg">
<g clip-path="url(#clip0_892_6991)">
<rect width="40" height="40" rx="20" fill="white"/>
<path d="M37.7778 0H2.22222C1 0 0 0.947369 0 2.10526V37.8947C0 39.0526 1 40 2.22222 40H37.7778C39 40 40 39.0526 40 37.8947V2.10526C40 0.947369 39 0 37.7778 0Z" fill="white"/>
<path d="M19.9998 23.3337C24.0499 23.3337 27.3332 20.0504 27.3332 16.0003C27.3332 11.9502 24.0499 8.66699 19.9998 8.66699C15.9497 8.66699 12.6665 11.9502 12.6665 16.0003C12.6665 20.0504 15.9497 23.3337 19.9998 23.3337Z" fill="#1DB7F0"/>
<path d="M35.3332 39.7189C35.3332 37.245 34.8221 35.2209 33.7998 33.1968C31.2443 28.249 26.1332 26 19.9998 26C14.0369 26 8.75539 28.0241 6.19984 33.1968C5.17761 35.2209 4.6665 37.245 4.6665 39.7189C4.6665 43.0924 4.6665 44.6667 4.6665 44.6667H35.3332C35.3332 44.6667 35.3332 43.3173 35.3332 39.7189Z" fill="#1DB7F0"/>
</g>
<rect x="0.5" y="0.5" width="39" height="39" rx="19.5" stroke="#1DB7F0" stroke-opacity="0.3"/>
<defs>
<clipPath id="clip0_892_6991">
<rect width="40" height="40" rx="20" fill="white"/>
</clipPath>
</defs>
</svg>
