<svg width="25" height="26" viewBox="0 0 25 26" fill="none" xmlns="http://www.w3.org/2000/svg">
<g clip-path="url(#clip0_1110_2728)">
<path d="M13.0408 5.62305L4.80407 15.3424C4.55005 15.6421 4.59429 16.0926 4.90178 16.3372L15.8251 25.0262L13.0408 5.62305Z" fill="#3FADB1"/>
<path d="M4.6875 13.367V4.39781C4.6875 3.79579 5.4 3.47766 5.84824 3.87953L9.73405 7.36336L4.6875 13.367Z" fill="#3FADB1"/>
<path d="M3.44523 8.84238V4.75293L0.606915 6.73932C0.137056 7.06815 0.244136 7.79224 0.789058 7.97101L3.44523 8.84238Z" fill="#3FADB1"/>
<path d="M15.8259 15.5425L14.2598 4.84031L23.362 0.858096C23.9866 0.584832 24.591 1.2794 24.234 1.86025L15.8259 15.5425Z" fill="#3FADB1"/>
<path d="M17.2178 25.0264L16.3477 17.8916L23.6517 17.8916C24.2977 17.8916 24.5953 18.6952 24.105 19.1159L17.2178 25.0264Z" fill="#3FADB1"/>
</g>
<defs>
<clipPath id="clip0_1110_2728">
<rect width="25" height="25" fill="white" transform="translate(0 0.5)"/>
</clipPath>
</defs>
</svg>
