<svg width="14" height="14" viewBox="0 0 14 14" fill="none" xmlns="http://www.w3.org/2000/svg">
<path d="M10.3335 1.00001C10.3335 0.631344 10.0348 0.333344 9.66683 0.333344C9.29883 0.333344 9.00016 0.631344 9.00016 1.00001H5.00016C5.00016 0.631344 4.7015 0.333344 4.3335 0.333344C3.9655 0.333344 3.66683 0.631344 3.66683 1.00001C1.82883 1.00001 0.333496 2.49534 0.333496 4.33334V10.3333C0.333496 12.1713 1.82883 13.6667 3.66683 13.6667H10.3335C12.1715 13.6667 13.6668 12.1713 13.6668 10.3333V4.33334C13.6668 2.49534 12.1715 1.00001 10.3335 1.00001ZM3.66683 2.33334V3.00001C3.66683 3.36868 3.9655 3.66668 4.3335 3.66668C4.7015 3.66668 5.00016 3.36868 5.00016 3.00001V2.33334H9.00016V3.00001C9.00016 3.36868 9.29883 3.66668 9.66683 3.66668C10.0348 3.66668 10.3335 3.36868 10.3335 3.00001V2.33334C11.4362 2.33334 12.3335 3.23068 12.3335 4.33334H1.66683C1.66683 3.23068 2.56416 2.33334 3.66683 2.33334ZM10.3335 12.3333H3.66683C2.56416 12.3333 1.66683 11.436 1.66683 10.3333V5.66668H12.3335V10.3333C12.3335 11.436 11.4362 12.3333 10.3335 12.3333ZM10.3335 7.66668C10.3335 8.03468 10.0348 8.33334 9.66683 8.33334C9.29883 8.33334 9.00016 8.03468 9.00016 7.66668C9.00016 7.29868 9.29883 7.00001 9.66683 7.00001C10.0348 7.00001 10.3335 7.29868 10.3335 7.66668ZM7.66683 7.66668C7.66683 8.03468 7.36816 8.33334 7.00016 8.33334C6.63216 8.33334 6.3335 8.03468 6.3335 7.66668C6.3335 7.29868 6.63216 7.00001 7.00016 7.00001C7.36816 7.00001 7.66683 7.29868 7.66683 7.66668ZM5.00016 7.66668C5.00016 8.03468 4.7015 8.33334 4.3335 8.33334C3.9655 8.33334 3.66683 8.03468 3.66683 7.66668C3.66683 7.29868 3.9655 7.00001 4.3335 7.00001C4.7015 7.00001 5.00016 7.29868 5.00016 7.66668ZM10.3335 10.3333C10.3335 10.7013 10.0348 11 9.66683 11C9.29883 11 9.00016 10.7013 9.00016 10.3333C9.00016 9.96534 9.29883 9.66668 9.66683 9.66668C10.0348 9.66668 10.3335 9.96534 10.3335 10.3333ZM7.66683 10.3333C7.66683 10.7013 7.36816 11 7.00016 11C6.63216 11 6.3335 10.7013 6.3335 10.3333C6.3335 9.96534 6.63216 9.66668 7.00016 9.66668C7.36816 9.66668 7.66683 9.96534 7.66683 10.3333ZM5.00016 10.3333C5.00016 10.7013 4.7015 11 4.3335 11C3.9655 11 3.66683 10.7013 3.66683 10.3333C3.66683 9.96534 3.9655 9.66668 4.3335 9.66668C4.7015 9.66668 5.00016 9.96534 5.00016 10.3333Z" fill="#1DB7F0"/>
</svg>
