<svg width="104" height="104" viewBox="0 0 104 104" fill="none" xmlns="http://www.w3.org/2000/svg">
<g filter="url(#filter0_d_1172_16368)">
<rect x="30" y="26" width="44" height="44" rx="22" fill="#FEECDC" shape-rendering="crispEdges"/>
<path fill-rule="evenodd" clip-rule="evenodd" d="M57.7071 43.7071C58.0976 43.3166 58.0976 42.6834 57.7071 42.2929C57.3166 41.9024 56.6834 41.9024 56.2929 42.2929L52 46.5858L47.7071 42.2929C47.3166 41.9024 46.6834 41.9024 46.2929 42.2929C45.9024 42.6834 45.9024 43.3166 46.2929 43.7071L50.5858 48L46.2929 52.2929C45.9024 52.6834 45.9024 53.3166 46.2929 53.7071C46.6834 54.0976 47.3166 54.0976 47.7071 53.7071L52 49.4142L56.2929 53.7071C56.6834 54.0976 57.3166 54.0976 57.7071 53.7071C58.0976 53.3166 58.0976 52.6834 57.7071 52.2929L53.4142 48L57.7071 43.7071Z" fill="#E9585A"/>
</g>
<defs>
<filter id="filter0_d_1172_16368" x="0" y="0" width="104" height="104" filterUnits="userSpaceOnUse" color-interpolation-filters="sRGB">
<feFlood flood-opacity="0" result="BackgroundImageFix"/>
<feColorMatrix in="SourceAlpha" type="matrix" values="0 0 0 0 0 0 0 0 0 0 0 0 0 0 0 0 0 0 127 0" result="hardAlpha"/>
<feOffset dy="4"/>
<feGaussianBlur stdDeviation="15"/>
<feComposite in2="hardAlpha" operator="out"/>
<feColorMatrix type="matrix" values="0 0 0 0 0.224916 0 0 0 0 0.242491 0 0 0 0 0.334761 0 0 0 0.1 0"/>
<feBlend mode="normal" in2="BackgroundImageFix" result="effect1_dropShadow_1172_16368"/>
<feBlend mode="normal" in="SourceGraphic" in2="effect1_dropShadow_1172_16368" result="shape"/>
</filter>
</defs>
</svg>
