<svg width="12" height="14" viewBox="0 0 12 14" fill="none" xmlns="http://www.w3.org/2000/svg">
<path d="M6.00033 2.99967C4.52966 2.99967 3.33366 4.19567 3.33366 5.66634C3.33366 7.13701 4.52966 8.33301 6.00033 8.33301C7.47099 8.33301 8.66699 7.13701 8.66699 5.66634C8.66699 4.19567 7.47099 2.99967 6.00033 2.99967ZM6.00033 6.99967C5.26499 6.99967 4.66699 6.40167 4.66699 5.66634C4.66699 4.93101 5.26499 4.33301 6.00033 4.33301C6.73566 4.33301 7.33366 4.93101 7.33366 5.66634C7.33366 6.40167 6.73566 6.99967 6.00033 6.99967ZM5.99766 0.333008C2.95833 0.333008 0.666992 2.62567 0.666992 5.66634C0.666992 9.88367 3.87499 12.5063 5.25432 13.4377C5.47966 13.5903 5.73899 13.667 5.99766 13.667C6.25566 13.667 6.51366 13.591 6.73899 13.439C8.12033 12.5063 11.333 9.88234 11.333 5.66634C11.3337 2.62567 9.03966 0.333008 5.99766 0.333008ZM6.001 12.333C4.79833 11.5203 2.00033 9.24434 2.00033 5.66634C2.00033 3.34834 3.68099 1.66634 5.99766 1.66634C8.27966 1.66634 10.0003 3.38567 10.0003 5.66634C10.0003 9.24234 7.19833 11.5203 6.001 12.333Z" fill="#1DB7F0"/>
</svg>
