<svg width="20" height="20" viewBox="0 0 20 20" xmlns="http://www.w3.org/2000/svg">
<path d="M10.0007 4.99935C8.16232 4.99935 6.66732 6.49435 6.66732 8.33268C6.66732 10.171 8.16232 11.666 10.0007 11.666C11.839 11.666 13.334 10.171 13.334 8.33268C13.334 6.49435 11.839 4.99935 10.0007 4.99935ZM10.0007 9.99935C9.08148 9.99935 8.33398 9.25185 8.33398 8.33268C8.33398 7.41352 9.08148 6.66602 10.0007 6.66602C10.9198 6.66602 11.6673 7.41352 11.6673 8.33268C11.6673 9.25185 10.9198 9.99935 10.0007 9.99935ZM9.99732 1.66602C6.19815 1.66602 3.33398 4.53185 3.33398 8.33268C3.33398 13.6043 7.34398 16.8827 9.06815 18.0468C9.34981 18.2377 9.67399 18.3335 9.99732 18.3335C10.3198 18.3335 10.6423 18.2385 10.924 18.0485C12.6507 16.8826 16.6665 13.6027 16.6665 8.33268C16.6673 4.53185 13.7998 1.66602 9.99732 1.66602ZM10.0015 16.666C8.49816 15.6502 5.00065 12.8052 5.00065 8.33268C5.00065 5.43518 7.10149 3.33268 9.99732 3.33268C12.8498 3.33268 15.0007 5.48185 15.0007 8.33268C15.0007 12.8027 11.4982 15.6502 10.0015 16.666Z"/>
</svg>
