<svg width="14" height="14" viewBox="0 0 14 14" fill="none" xmlns="http://www.w3.org/2000/svg">
<path d="M7.00016 0.333344C3.32416 0.333344 0.333496 3.32401 0.333496 7.00001C0.333496 10.676 3.32416 13.6667 7.00016 13.6667C10.6762 13.6667 13.6668 10.676 13.6668 7.00001C13.6668 3.32401 10.6762 0.333344 7.00016 0.333344ZM7.00016 12.3333C4.0595 12.3333 1.66683 9.94068 1.66683 7.00001C1.66683 4.05934 4.0595 1.66668 7.00016 1.66668C9.94083 1.66668 12.3335 4.05934 12.3335 7.00001C12.3335 9.94068 9.94083 12.3333 7.00016 12.3333ZM10.3335 7.00001C10.3335 7.36868 10.0348 7.66668 9.66683 7.66668H7.00016C6.63216 7.66668 6.3335 7.36868 6.3335 7.00001V3.66668C6.3335 3.29801 6.63216 3.00001 7.00016 3.00001C7.36816 3.00001 7.66683 3.29801 7.66683 3.66668V6.33334H9.66683C10.0348 6.33334 10.3335 6.63134 10.3335 7.00001Z" fill="#1DB7F0"/>
</svg>
