<svg width="16" height="16" viewBox="0 0 16 16" fill="none" xmlns="http://www.w3.org/2000/svg">
<path d="M11.3335 1.33334H4.66683C2.82883 1.33334 1.3335 2.82868 1.3335 4.66668V8.66668C1.3335 10.5047 2.82883 12 4.66683 12H7.3335V13.3333H5.3335C4.9655 13.3333 4.66683 13.6313 4.66683 14C4.66683 14.3687 4.9655 14.6667 5.3335 14.6667H10.6668C11.0348 14.6667 11.3335 14.3687 11.3335 14C11.3335 13.6313 11.0348 13.3333 10.6668 13.3333H8.66683V12H11.3335C13.1715 12 14.6668 10.5047 14.6668 8.66668V4.66668C14.6668 2.82868 13.1715 1.33334 11.3335 1.33334ZM13.3335 8.66668C13.3335 9.76934 12.4362 10.6667 11.3335 10.6667H4.66683C3.56416 10.6667 2.66683 9.76934 2.66683 8.66668V4.66668C2.66683 3.56401 3.56416 2.66668 4.66683 2.66668H11.3335C12.4362 2.66668 13.3335 3.56401 13.3335 4.66668V8.66668Z" fill="#1DB7F0"/>
</svg>
