<svg width="20" height="20" viewBox="0 0 20 20" xmlns="http://www.w3.org/2000/svg">
<path d="M14.1665 1.66699H5.83317C3.53567 1.66699 1.6665 3.53616 1.6665 5.83366V10.8337C1.6665 13.1312 3.53567 15.0003 5.83317 15.0003H9.1665V16.667H6.6665C6.2065 16.667 5.83317 17.0395 5.83317 17.5003C5.83317 17.9612 6.2065 18.3337 6.6665 18.3337H13.3332C13.7932 18.3337 14.1665 17.9612 14.1665 17.5003C14.1665 17.0395 13.7932 16.667 13.3332 16.667H10.8332V15.0003H14.1665C16.464 15.0003 18.3332 13.1312 18.3332 10.8337V5.83366C18.3332 3.53616 16.464 1.66699 14.1665 1.66699ZM16.6665 10.8337C16.6665 12.212 15.5448 13.3337 14.1665 13.3337H5.83317C4.45484 13.3337 3.33317 12.212 3.33317 10.8337V5.83366C3.33317 4.45533 4.45484 3.33366 5.83317 3.33366H14.1665C15.5448 3.33366 16.6665 4.45533 16.6665 5.83366V10.8337Z" />
</svg>
